<svg xmlns="http://www.w3.org/2000/svg" viewBox="0 0 60 60"><path d="M55.5 46.6l-9.8-4.2c-0.2-0.1-0.5-0.4-0.7-0.8l6.5 0c0.1 0 2.8 0.3 5-0.7 0.8-0.4 1.4-1 1.7-1.9 0.2-0.9 0.1-1.8-0.4-2.5 -1.9-2.7-6.2-9.6-6.4-16.6 0-0.1-0.4-12.1-12.2-12.2 -1.7 0-3.3 0.3-4.8 0.9 -0.3-0.8-0.8-1.7-1.5-2.5C30.9 3.7 27.5 2.5 23 2.5s-7.9 1.2-9.9 3.5c-2.4 2.7-2.1 6-2.1 6.5v5.3c-0.6 0.7-1 1.7-1 2.6v4c0 1.2 0.6 2.4 1.5 3.1 0.9 3.6 2.8 6.4 3.5 7.2v3.3c0 1-0.5 1.9-1.4 2.3l-8.9 4.9C1.8 46.9 0 50 0 53.3V57.5h44 2 14v-3.7C60 50.7 58.3 47.9 55.5 46.6zM44 55.5H2v-2.2c0-2.6 1.4-4.9 3.7-6.2l8.9-4.9C16.1 41.4 17 39.9 17 38.2v-4l-0.2-0.3c0 0-2.5-3-3.4-7.1l-0.1-0.4 -0.3-0.2C12.3 25.8 12 25.2 12 24.5v-4c0-0.6 0.2-1.1 0.7-1.5L13 18.7V12.5l0-0.1c0 0-0.3-2.8 1.6-5C16.3 5.5 19.1 4.5 23 4.5c3.9 0 6.7 1 8.4 2.8 0.8 0.9 1.2 2 1.4 2.9 0 0.1 0 0.1 0 0.2 0 0.1 0 0.1 0 0.2 0 0.1 0 0.2 0 0.2 0 0.1 0 0.1 0 0.2 0 0.1 0 0.2 0 0.4 0 0 0 0 0 0 0 0.1 0 0.2 0 0.3 0 0 0 0 0 0.1 0 0.1 0 0.2 0 0.2 0 0 0 0 0 0 0 0.2 0 0.4 0 0.4L33 18.7l0.3 0.3C33.8 19.4 34 19.9 34 20.5v4c0 0.9-0.6 1.6-1.4 1.9l-0.5 0.2 -0.2 0.5c-0.7 2.1-1.6 4-2.8 5.7 -0.3 0.4-0.6 0.8-0.8 1.1L28 34.1v4.1c0 0.3 0 0.5 0.1 0.7 0 0.1 0 0.1 0 0.2 0 0.2 0.1 0.4 0.2 0.6 0 0 0 0.1 0 0.1 0.1 0.2 0.2 0.4 0.3 0.6 0 0 0 0 0 0.1 0.1 0.3 0.3 0.5 0.5 0.7l0.2 0.3h0c0.3 0.3 0.7 0.6 1.2 0.9l9.6 4.8C42.5 48.4 44 50.8 44 53.5V55.5zM58 55.5H46v-2c0-3.4-1.9-6.5-5-8.1l-6.9-3.4c0.2-0.4 0.2-0.8 0-1.3 -0.2-0.7-0.9-1.2-1.6-1.2h-2.2c0-0.1-0.1-0.2-0.1-0.3 0-0.1-0.1-0.2-0.1-0.3C30 38.7 30 38.5 30 38.2v-3.4c0.2-0.3 0.5-0.6 0.7-1 1.2-1.7 2.2-3.7 3-5.8C35.1 27.5 36 26.1 36 24.5v-4c0-1-0.4-1.9-1-2.6v-5.3c0-0.2 0.1-1.1-0.1-2.1 1.3-0.5 2.7-0.8 4.3-0.8 9.8 0.1 10.2 9.8 10.2 10.2 0.1 7.6 4.7 14.9 6.7 17.7 0.2 0.2 0.2 0.5 0.1 0.8 0 0.2-0.2 0.5-0.5 0.6 -1.7 0.7-4 0.5-4.1 0.5h-6.9c-0.6 0-1.2 0.3-1.6 0.9 -0.3 0.5-0.4 1.2-0.1 1.8 0.3 0.6 0.9 1.5 1.8 1.9l9.7 4.2C56.7 49.4 58 51.5 58 53.8V55.5z"/></svg>
