<svg xmlns="http://www.w3.org/2000/svg" viewBox="0 0 58 58"><path d="M42.9 4.5c-0.5-2.3-2.5-4-4.9-4 -0.6 0-1 0.4-1 1s0.4 1 1 1c1.7 0 3 1.3 3 3s-1.3 3-3 3c-0.6 0-1 0.4-1 1s0.4 1 1 1c2.4 0 4.4-1.7 4.9-4H56v9H2v-9h14 3c0.6 0 1-0.4 1-1s-0.4-1-1-1h-1.8c0.4-1.2 1.5-2 2.8-2 1.7 0 3 1.3 3 3s-1.3 3-3 3c-0.6 0-1 0.4-1 1s0.4 1 1 1c2.8 0 5-2.2 5-5s-2.2-5-5-5c-2.4 0-4.4 1.7-4.9 4H0v13 40h58v-40 -13H42.9zM56 55.5H2v-38h54V55.5z"/><path d="M26 2.5c1.7 0 3 1.3 3 3s-1.3 3-3 3c-0.6 0-1 0.4-1 1s0.4 1 1 1c2.8 0 5-2.2 5-5s-2.2-5-5-5c-0.6 0-1 0.4-1 1S25.4 2.5 26 2.5z"/><path d="M32 2.5c1.7 0 3 1.3 3 3s-1.3 3-3 3c-0.6 0-1 0.4-1 1s0.4 1 1 1c2.8 0 5-2.2 5-5s-2.2-5-5-5c-0.6 0-1 0.4-1 1S31.4 2.5 32 2.5z"/><circle cx="22" cy="24.5" r="1"/><circle cx="29" cy="24.5" r="1"/><circle cx="36" cy="24.5" r="1"/><circle cx="43" cy="24.5" r="1"/><circle cx="50" cy="24.5" r="1"/><circle cx="8" cy="32.5" r="1"/><circle cx="15" cy="32.5" r="1"/><circle cx="22" cy="32.5" r="1"/><circle cx="29" cy="32.5" r="1"/><circle cx="36" cy="32.5" r="1"/><circle cx="43" cy="32.5" r="1"/><circle cx="50" cy="32.5" r="1"/><circle cx="8" cy="39.5" r="1"/><circle cx="15" cy="39.5" r="1"/><circle cx="22" cy="39.5" r="1"/><circle cx="29" cy="39.5" r="1"/><circle cx="36" cy="39.5" r="1"/><circle cx="43" cy="39.5" r="1"/><circle cx="50" cy="39.5" r="1"/><circle cx="8" cy="47.5" r="1"/><circle cx="15" cy="47.5" r="1"/><circle cx="22" cy="47.5" r="1"/><circle cx="29" cy="47.5" r="1"/><circle cx="36" cy="47.5" r="1"/></svg>
