<svg xmlns="http://www.w3.org/2000/svg" viewBox="0 0 52 52"><path d="M26 0C11.7 0 0 11.7 0 26s11.7 26 26 26 26-11.7 26-26S40.3 0 26 0zM26 50C12.8 50 2 39.2 2 26S12.8 2 26 2s24 10.8 24 24S39.2 50 26 50z"/><path d="M35.7 16.3c-0.4-0.4-1-0.4-1.4 0L26 24.6l-8.3-8.3c-0.4-0.4-1-0.4-1.4 0s-0.4 1 0 1.4L24.6 26l-8.3 8.3c-0.4 0.4-0.4 1 0 1.4C16.5 35.9 16.7 36 17 36s0.5-0.1 0.7-0.3L26 27.4l8.3 8.3C34.5 35.9 34.7 36 35 36s0.5-0.1 0.7-0.3c0.4-0.4 0.4-1 0-1.4L27.4 26l8.3-8.3C36.1 17.3 36.1 16.7 35.7 16.3z"/></svg>
